<?xml version="1.0" standalone="no"?>
<!DOCTYPE svg PUBLIC "-//W3C//DTD SVG 20010904//EN"
 "http://www.w3.org/TR/2001/REC-SVG-20010904/DTD/svg10.dtd">
<svg version="1.0" xmlns="http://www.w3.org/2000/svg"
 width="512.000000pt" height="512.000000pt" viewBox="0 0 512.000000 512.000000"
 preserveAspectRatio="xMidYMid meet">
<metadata>
Created by potrace 1.14, written by Peter Selinger 2001-2017
</metadata>
<g transform="translate(0.000000,512.000000) scale(0.100000,-0.100000)"
fill="#000000" stroke="none">
<path d="M386 5104 c-176 -43 -329 -196 -371 -375 -13 -56 -15 -327 -15 -2169
0 -2316 -4 -2169 61 -2291 40 -74 134 -168 208 -208 122 -65 -25 -61 2291 -61
2316 0 2169 -4 2291 61 74 40 168 134 208 208 65 122 61 -25 61 2291 0 1842
-2 2113 -15 2169 -43 181 -195 333 -376 376 -94 22 -4251 21 -4343 -1z m1164
-1724 c118 -30 239 -93 312 -160 l59 -55 -55 -55 -56 -54 -27 26 c-121 111
-283 168 -478 168 -136 0 -226 -20 -344 -77 -129 -62 -239 -170 -300 -293 -57
-118 -74 -193 -74 -325 0 -128 18 -206 69 -311 137 -279 457 -428 792 -370 99
17 194 51 254 91 l38 25 0 285 0 285 85 0 85 0 0 -324 0 -325 -74 -49 c-390
-261 -964 -188 -1239 157 -152 191 -216 446 -173 689 33 188 104 323 240 457
124 122 267 195 452 230 111 21 321 13 434 -15z m1095 -687 c131 -390 241
-714 245 -722 4 -8 26 40 54 120 25 74 138 397 250 719 l204 585 82 0 82 0
246 -722 c136 -397 249 -719 253 -715 3 4 113 325 244 714 131 389 241 712
245 718 4 7 37 10 87 8 l81 -3 -282 -835 -282 -835 -95 -3 -94 -2 -239 697
c-131 384 -242 705 -247 713 -7 13 -8 13 -13 0 -3 -8 -109 -316 -236 -685
-127 -368 -235 -682 -241 -697 -11 -28 -12 -28 -103 -28 l-91 0 -279 828
c-153 455 -281 833 -284 840 -3 9 18 12 86 12 l89 0 238 -707z"/>
</g>
</svg>
